<svg xmlns="http://www.w3.org/2000/svg" aria-hidden="true" style="position:absolute;width:0;height:0;overflow:hidden"><defs><symbol id="icon-moon-light" viewBox="0 0 16 16"><path fill="var(--bg-color)" fill-rule="evenodd" stroke="var(--fg-color)" d="M10.843 11.052c-3.108 0-5.628-2.31-5.628-5.157 0-1.075.358-2.07.97-2.895C3.752 3.756 2 5.865 2 8.35 2 11.47 4.76 14 8.163 14c2.711 0 5.013-1.605 5.837-3.836-.9.56-1.987.888-3.157.888Z" clip-rule="evenodd"/></symbol><symbol id="icon-moon-dark" viewBox="0 0 16 16"><path fill="#fff" fill-rule="evenodd" stroke="#fff" d="M10.843 11.052c-3.108 0-5.628-2.31-5.628-5.157 0-1.075.358-2.07.97-2.895C3.752 3.756 2 5.865 2 8.35 2 11.47 4.76 14 8.163 14c2.711 0 5.013-1.605 5.837-3.836-.9.56-1.987.888-3.157.888Z" clip-rule="evenodd"/></symbol><symbol id="icon-search" fill="none" viewBox="0 0 16 16"><path id="Shape" fill="var(--fg-color-input)" fill-rule="evenodd" d="M11.111 9.778H10.4l-.267-.267a5.564 5.564 0 0 0 1.423-3.733C11.556 2.578 8.978 0 5.778 0A5.766 5.766 0 0 0 0 5.778c0 3.2 2.578 5.778 5.778 5.778a5.564 5.564 0 0 0 3.733-1.423l.267.267v.711l4.444 4.445 1.334-1.334-4.445-4.444Zm-5.333 0c-2.222 0-4-1.778-4-4s1.778-4 4-4 4 1.778 4 4-1.778 4-4 4Z" clip-rule="evenodd"/></symbol><symbol id="icon-arrow" viewBox="0 0 18 18"><path fill="currentColor" fill-rule="evenodd" d="m5.818 3.697 1.06 1.06-3.5 3.5h13.365v1.485H3.379l3.5 3.5-1.061 1.061L.515 9l5.303-5.303Z" clip-rule="evenodd"/></symbol></defs></svg>